<svg width="24px" height="24px" viewBox="0 0 24 24" version="1.1" xmlns="http://www.w3.org/2000/svg" xmlns:xlink="http://www.w3.org/1999/xlink"><title>icons / profile</title><defs><path d="M12.1439808,23.9836154 C9.46988462,23.9836154 6.97942308,23.5945962 5.13148077,22.8881538 C3.70296154,22.3420385 2,21.3434423 2,19.6875 C2,17.7075 2.51773077,15.7683462 3.49723077,14.07975 C4.45175,12.4340769 5.80244231,11.0907115 7.40328846,10.1948077 L7.52253846,10.1281154 L7.43778846,10.0209231 C6.57782692,8.93319231 6.10417308,7.55878846 6.10417308,6.15080769 C6.10417308,2.75925 8.81357692,0 12.1439808,0 C15.4742692,0 18.1837308,2.76161538 18.1837308,6.15611538 C18.1837308,7.56017308 17.7101346,8.93238462 16.8500577,10.02 L16.7653077,10.1271923 L16.8846154,10.1939423 C18.4854038,11.0897885 19.8360962,12.4333269 20.7906731,14.0792885 C21.7701731,15.7681154 22.2879038,17.7074423 22.2879038,19.6875 C22.2879038,21.3434423 20.585,22.3420385 19.1564231,22.8881538 C17.3084808,23.5945962 14.8180769,23.9836154 12.1439808,23.9836154 L12.1439808,23.9836154 Z M8.30282692,11.7359423 C5.53740385,13.2835385 3.81955769,16.3194231 3.81955769,19.6588846 C3.81955769,20.1660577 4.57873077,20.7763269 5.80082692,21.2514808 C7.41707692,21.8799231 9.72909615,22.2404423 12.1439808,22.2404423 C14.5588077,22.2404423 16.8708269,21.8799231 18.4870769,21.2514808 C19.7092308,20.7763269 20.4684038,20.1660577 20.4684038,19.6588846 C20.4684038,16.3194808 18.7504423,13.2835385 15.9850769,11.7359423 L14.0381346,10.6463654 L15.4140385,8.90619231 C16.0356154,8.12025 16.3641154,7.16676923 16.3641154,6.14896154 C16.3641154,3.74371154 14.4709423,1.78684615 12.1439808,1.78684615 C9.81690385,1.78684615 7.92373077,3.74371154 7.92373077,6.14896154 C7.92373077,7.16671154 8.25228846,8.12019231 8.87380769,8.90619231 L10.2497692,10.6463077 L8.30282692,11.7359423 L8.30282692,11.7359423 Z" id="path-profile"></path></defs><g id="icons-/-profile" stroke="none" stroke-width="1" fill="none" fill-rule="evenodd"><mask id="mask-profile" fill="white"><use xlink:href="#path-profile"></use></mask><use fill="currentColor" xlink:href="#path-profile"></use><g id="Group" mask="url(#mask-profile)" fill="currentColor"><g id="color-/-primary-/-black"><rect id="Rectangle" x="0" y="0" width="24" height="24"></rect></g></g></g></svg>