<svg width="18" height="24" viewBox="0 0 18 24" fill="none" xmlns="http://www.w3.org/2000/svg"><path fill-rule="evenodd" clip-rule="evenodd" d="M0.0222168 1C0.0222168 0.45999 0.459983 0.0222244 0.999995 0.0222244H17C17.54 0.0222244 17.9778 0.45999 17.9778 1V23C17.9778 23.3537 17.7868 23.6798 17.4783 23.8528C17.1698 24.0258 16.7919 24.0188 16.4901 23.8343L8.99999 19.257L1.50986 23.8343C1.20806 24.0188 0.830192 24.0258 0.521707 23.8528C0.213222 23.6798 0.0222168 23.3537 0.0222168 23V1ZM1.97777 1.97778V21.2566L8.49013 17.2768C8.80313 17.0855 9.19686 17.0855 9.50986 17.2768L16.0222 21.2566V1.97778H1.97777Z" fill="currentColor"></path></svg>